<?xml version="1.0"?>
<svg version="1.1" xmlns="http://www.w3.org/2000/svg" width="330px" height="100px" style=""><path fill="#9c0000" d="M6.9,79.1l0-28.2l-4.5-1.8l0-5.1l13.8-0.3l5.7,0c12,0,19.08,7.08,19.08,20.58s-7.8,21.72-19.98,21.72l-18.6,0l0-5.1z M16.2,78.8l4.98,0c5.82,0,9.72-3.42,9.72-14.22c0-10.08-3.42-13.68-9.3-13.68l-5.4,0l0,27.9z M62.8506,53.6l0.54,4.14s4.32-4.74,8.34-4.74c3.3,0,5.58,1.08,5.58,1.08l-0.48,11.52l-5.4,0l-0.9-5.1c-3.48,0-6.48,3.36-6.48,3.36l0,15.84l6,1.5l0,4.8l-19.8,0l0-4.8l4.8-1.5l0-19.5l-4.8-1.5l0-4.8z M87.6012,43.7c0-3.42,2.46-5.4,5.16-5.4c3.12,0,5.04,1.62,5.04,5.4c0,3.54-2.58,5.46-5.04,5.46c-3.24,0-5.16-1.92-5.16-5.46z M97.6812,79.7l4.2,1.5l0,4.8l-18,0l0-4.8l4.8-1.5l0-19.5l-4.8-1.5l0-4.8l13.8-0.3l0,26.1z M127.7718,58.7l0-4.8l15.72-0.3l0,5.1l-3.42,0.78l-9.66,26.52l-9.9,0l-9.48-26.34l-2.88-0.96l0-4.8l15.72-0.3l0,5.1l-3.36,0.6l5.46,17.7l5.28-17.52z M179.3424,71.78l-19.92,0c0.36,4.8,3.12,7.62,7.26,7.62c4.98,0,10.08-2.82,10.08-2.82l2.58,4.98s-6,5.04-13.68,5.04c-10.32,0-15.6-6-15.6-16.2c0-10.5,5.94-17.4,16.02-17.4c8.94,0,13.62,5.52,13.62,14.1c0,2.28-0.36,4.5-0.36,4.68z M159.5424,66.2l10.86,0c0-3.42-1.44-6-4.92-6c-3.36,0-5.46,2.46-5.94,6z M188.673,86l0-5.1l4.5-1.8l0-28.2l-4.5-1.8l0-5.1l13.8-0.3l16.8,0l0,11.4l-5.58,0l-1.5-4.2l-9.72,0l0,10.5l12.42,0l0,6.6l-12.42,0l0,11.1l5.52,1.8l0,5.1l-19.32,0z M240.0036,79.7l5.4,1.5l0,4.8l-19.26,0l0-4.8l4.8-1.5l0-33.72l-4.8-1.2l0-4.8l13.86-0.48l0,40.2z M281.2542,71.78l-19.92,0c0.36,4.8,3.12,7.62,7.26,7.62c4.98,0,10.08-2.82,10.08-2.82l2.58,4.98s-6,5.04-13.68,5.04c-10.32,0-15.6-6-15.6-16.2c0-10.5,5.94-17.4,16.02-17.4c8.94,0,13.62,5.52,13.62,14.1c0,2.28-0.36,4.5-0.36,4.68z M261.4542,66.2l10.86,0c0-3.42-1.44-6-4.92-6c-3.36,0-5.46,2.46-5.94,6z M321.9048,58.7l-3.72,0.78l-6.9,10.32l6.78,10.2l4.44,1.2l0,4.8l-16.32,0l0-4.8l1.86-0.66l-3.18-5.28l-6.48,10.74l-10.2,0l0-4.8l4.5-1.2l6.6-9.9l-7.26-10.62l-3.24-0.78l0-4.8l15.54-0.3l0,5.1l-1.8,0.36l3.12,5.28l6.24-10.44l10.02-0.3l0,5.1z"/><path fill="#c73268" d=""/></svg>
